<svg width="24" height="19" viewBox="0 0 24 19" fill="none" xmlns="http://www.w3.org/2000/svg">
<path fill-rule="evenodd" clip-rule="evenodd" d="M17.25 0.5H6.75C5.09315 0.5 3.75 1.84315 3.75 3.5V17C3.75 17.8284 4.42157 18.5 5.25 18.5H7.5C8.32843 18.5 9 17.8284 9 17V15.5H15V17C15 17.8284 15.6716 18.5 16.5 18.5H18.75C19.5784 18.5 20.25 17.8284 20.25 17V3.5C20.25 1.84315 18.9069 0.5 17.25 0.5ZM5.25 14V8.75H18.75V14H5.25ZM5.25 5H18.75V7.25H5.25V5ZM6.75 2H17.25C18.0784 2 18.75 2.67157 18.75 3.5H5.25C5.25 2.67157 5.92157 2 6.75 2ZM7.5 17H5.25V15.5H7.5V17ZM16.5 17V15.5H18.75V17H16.5ZM9.75 11.375C9.75 11.9963 9.24632 12.5 8.625 12.5C8.00368 12.5 7.5 11.9963 7.5 11.375C7.5 10.7537 8.00368 10.25 8.625 10.25C9.24632 10.25 9.75 10.7537 9.75 11.375ZM16.5 11.375C16.5 11.9963 15.9963 12.5 15.375 12.5C14.7537 12.5 14.25 11.9963 14.25 11.375C14.25 10.7537 14.7537 10.25 15.375 10.25C15.9963 10.25 16.5 10.7537 16.5 11.375ZM23.25 5V7.25C23.25 7.66421 22.9142 8 22.5 8C22.0858 8 21.75 7.66421 21.75 7.25V5C21.75 4.58579 22.0858 4.25 22.5 4.25C22.9142 4.25 23.25 4.58579 23.25 5ZM2.25 5V7.25C2.25 7.66421 1.91421 8 1.5 8C1.08579 8 0.75 7.66421 0.75 7.25V5C0.75 4.58579 1.08579 4.25 1.5 4.25C1.91421 4.25 2.25 4.58579 2.25 5Z" fill="#121417"/>
</svg>
