<svg width="22" height="20" viewBox="0 0 22 20" fill="none" xmlns="http://www.w3.org/2000/svg">
<path fill-rule="evenodd" clip-rule="evenodd" d="M14.625 5.25C13.9833 5.24961 13.3444 5.3357 12.7256 5.50594C12.4814 5.10741 12.1847 4.74353 11.8434 4.42406L12.735 3.15188C12.8887 2.93232 12.9137 2.64743 12.8004 2.40452C12.6871 2.1616 12.4529 1.99757 12.1859 1.97421C11.9189 1.95084 11.6597 2.0717 11.5059 2.29125L10.6144 3.5625C9.88122 3.19232 9.07131 2.99964 8.25 3C8.19563 3 8.14125 3 8.08687 3L7.81594 1.47281C7.77722 1.20186 7.59398 0.973521 7.33784 0.877045C7.08171 0.78057 6.79336 0.831283 6.58551 1.00936C6.37766 1.18744 6.28332 1.4646 6.33938 1.7325L6.60938 3.26438C5.77758 3.53949 5.02769 4.01804 4.42781 4.65656L3.15094 3.76312C2.93149 3.60556 2.64426 3.57819 2.399 3.69148C2.15375 3.80476 1.98837 4.0412 1.96607 4.31043C1.94376 4.57966 2.06798 4.84009 2.29125 4.99219L3.5625 5.88469C3.19101 6.6177 2.99825 7.42823 3 8.25C3 8.30344 3 8.35781 3 8.41125L1.47281 8.68125C1.08962 8.74838 0.821364 9.09736 0.855044 9.48493C0.888725 9.8725 1.21316 10.17 1.60219 10.17C1.64586 10.1699 1.68946 10.1662 1.7325 10.1587L3.2625 9.88875C3.39693 10.298 3.58145 10.6891 3.81188 11.0531C2.3438 12.4167 1.85959 14.5398 2.59122 16.4051C3.32286 18.2704 5.12133 19.4981 7.125 19.5H14.625C18.56 19.5 21.75 16.31 21.75 12.375C21.75 8.43997 18.56 5.25 14.625 5.25ZM4.5 8.25C4.50092 6.62049 5.55406 5.17808 7.10588 4.68092C8.65769 4.18375 10.353 4.74565 11.3006 6.07125C9.77071 6.87638 8.58436 8.20861 7.96125 9.82125C6.97532 9.65106 5.96091 9.78752 5.055 10.2122C4.69231 9.62195 4.5002 8.94277 4.5 8.25ZM14.625 18H7.125C5.86704 17.9977 4.71476 17.2959 4.13542 16.1793C3.55608 15.0627 3.64584 13.7165 4.3683 12.6867C5.09075 11.6569 6.32599 11.1143 7.57312 11.2791C7.53844 11.5012 7.51406 11.7281 7.50094 11.9569C7.47712 12.3711 7.7936 12.7262 8.20781 12.75C8.62203 12.7738 8.97712 12.4573 9.00094 12.0431C9.02198 11.669 9.08103 11.2981 9.17719 10.9359C9.17719 10.9209 9.18563 10.9059 9.18844 10.8909C9.95416 8.077 12.7417 6.31339 15.6125 6.82664C18.4832 7.33989 20.487 9.96012 20.2303 12.8651C19.9735 15.77 17.5413 17.9982 14.625 18Z" fill="#121417"/>
</svg>
