<svg width="18" height="20" viewBox="0 0 18 20" fill="none" xmlns="http://www.w3.org/2000/svg">
<path fill-rule="evenodd" clip-rule="evenodd" d="M17.5153 8.22844L10.0153 1.15219C10.0116 1.14899 10.0082 1.14554 10.005 1.14188C9.43281 0.621501 8.55876 0.621501 7.98656 1.14188L7.97625 1.15219L0.484688 8.22844C0.17573 8.51254 -6.38962e-05 8.91309 0 9.33281V18C0 18.8284 0.671573 19.5 1.5 19.5H6C6.82843 19.5 7.5 18.8284 7.5 18V13.5H10.5V18C10.5 18.8284 11.1716 19.5 12 19.5H16.5C17.3284 19.5 18 18.8284 18 18V9.33281C18.0001 8.91309 17.8243 8.51254 17.5153 8.22844ZM16.5 18H12V13.5C12 12.6716 11.3284 12 10.5 12H7.5C6.67157 12 6 12.6716 6 13.5V18H1.5V9.33281L1.51031 9.32344L9 2.25L16.4906 9.32156L16.5009 9.33094L16.5 18Z" fill="#121417"/>
</svg>
