<svg width="18" height="19" viewBox="0 0 18 19" fill="none" xmlns="http://www.w3.org/2000/svg">
<path fill-rule="evenodd" clip-rule="evenodd" d="M16.5 0.5H1.5C0.671573 0.5 0 1.17157 0 2V17C0 17.8284 0.671573 18.5 1.5 18.5H16.5C17.3284 18.5 18 17.8284 18 17V2C18 1.17157 17.3284 0.5 16.5 0.5ZM16.5 17H1.5V2H16.5V17ZM4.5 9.5C4.5 9.08579 4.83579 8.75 5.25 8.75H10.9397L9.21937 7.03063C8.92632 6.73757 8.92632 6.26243 9.21937 5.96937C9.51243 5.67632 9.98757 5.67632 10.2806 5.96937L13.2806 8.96937C13.4215 9.11005 13.5006 9.30094 13.5006 9.5C13.5006 9.69906 13.4215 9.88995 13.2806 10.0306L10.2806 13.0306C9.98757 13.3237 9.51243 13.3237 9.21937 13.0306C8.92632 12.7376 8.92632 12.2624 9.21937 11.9694L10.9397 10.25H5.25C4.83579 10.25 4.5 9.91421 4.5 9.5Z" fill="#121417"/>
</svg>
